<svg version="1.1" xmlns="http://www.w3.org/2000/svg" xmlns:xlink="http://www.w3.org/1999/xlink" width="949" height="1225"><defs/><g><g transform="translate(-30,10) scale(1,1)"><rect fill="#C0C0C0" stroke="none" x="199" y="7" width="544.8853149414062" height="700" opacity="0.2"/></g><g transform="translate(-30,10) scale(1,1)"><rect fill="#ffffff" stroke="none" x="192" y="0" width="544.8853149414062" height="700"/></g><g transform="translate(-30,10) scale(1,1)"><path fill="none" stroke="#000000" d="M 192 0 L 736.8853149414062 0 L 736.8853149414062 700 L 192 700 L 192 0 Z Z" stroke-miterlimit="10"/></g><g transform="translate(-30,10) scale(1,1)"><path fill="none" stroke="#000000" d="M 192 25 L 736.8853149414062 25" stroke-miterlimit="10"/></g><g transform="translate(-30,10) scale(1,1)"><path fill="none" stroke="#000000" d="M 192 243 L 736.8853149414062 243" stroke-miterlimit="10"/></g><g transform="translate(-30,10) scale(1,1)"><g><path fill="none" stroke="none"/><text fill="#000000" stroke="none" font-family="Arial" font-size="13px" font-style="normal" font-weight="bold" text-decoration="none" x="414.3501281738281" y="17.7099609375">WebRTCService</text></g></g><g transform="translate(-30,10) scale(1,1)"><g><path fill="none" stroke="none"/><text fill="#000000" stroke="none" font-family="Arial" font-size="13px" font-style="normal" font-weight="normal" text-decoration="none" x="197" y="40.7099609375">-mediaRecorder!: MediaRecorder;</text></g></g><g transform="translate(-30,10) scale(1,1)"><g><path fill="none" stroke="none"/><text fill="#000000" stroke="none" font-family="Arial" font-size="13px" font-style="normal" font-weight="normal" text-decoration="none" x="197" y="55.7099609375">-audioChunks: Blob = [];</text></g></g><g transform="translate(-30,10) scale(1,1)"><g><path fill="none" stroke="none"/><text fill="#000000" stroke="none" font-family="Arial" font-size="13px" font-style="normal" font-weight="normal" text-decoration="none" x="197" y="70.7099609375">+isListening = false;</text></g></g><g transform="translate(-30,10) scale(1,1)"><g><path fill="none" stroke="none"/><text fill="#000000" stroke="none" font-family="Arial" font-size="13px" font-style="normal" font-weight="normal" text-decoration="none" x="197" y="85.7099609375">-stream!: MediaStream;</text></g></g><g transform="translate(-30,10) scale(1,1)"><g><path fill="none" stroke="none"/><text fill="#000000" stroke="none" font-family="Arial" font-size="13px" font-style="normal" font-weight="normal" text-decoration="none" x="197" y="100.7099609375">-audioContext: AudioContext | null = null;</text></g></g><g transform="translate(-30,10) scale(1,1)"><g><path fill="none" stroke="none"/><text fill="#000000" stroke="none" font-family="Arial" font-size="13px" font-style="normal" font-weight="normal" text-decoration="none" x="197" y="115.7099609375">-analyser: AnalyserNode | null = null;</text></g></g><g transform="translate(-30,10) scale(1,1)"><g><path fill="none" stroke="none"/><text fill="#000000" stroke="none" font-family="Arial" font-size="13px" font-style="normal" font-weight="normal" text-decoration="none" x="197" y="130.7099609375">-isCheckingAudio = false;</text></g></g><g transform="translate(-30,10) scale(1,1)"><g><path fill="none" stroke="none"/><text fill="#000000" stroke="none" font-family="Arial" font-size="13px" font-style="normal" font-weight="normal" text-decoration="none" x="197" y="145.7099609375">-audioTracks: MediaStreamTrack = [];</text></g></g><g transform="translate(-30,10) scale(1,1)"><g><path fill="none" stroke="none"/><text fill="#000000" stroke="none" font-family="Arial" font-size="13px" font-style="normal" font-weight="normal" text-decoration="none" x="197" y="160.7099609375">-isNoSpeech = false</text></g></g><g transform="translate(-30,10) scale(1,1)"><g><path fill="none" stroke="none"/><text fill="#000000" stroke="none" font-family="Arial" font-size="13px" font-style="normal" font-weight="normal" text-decoration="none" x="197" y="176.37550020217896">-abortController = new AbortController（）;</text></g></g><g transform="translate(-30,10) scale(1,1)"><g><path fill="none" stroke="none"/><text fill="#000000" stroke="none" font-family="Arial" font-size="13px" font-style="normal" font-weight="normal" text-decoration="none" x="197" y="190.7099609375">-isMuted = false</text></g></g><g transform="translate(-30,10) scale(1,1)"><g><path fill="none" stroke="none"/><text fill="#000000" stroke="none" font-family="Arial" font-size="13px" font-style="normal" font-weight="normal" text-decoration="none" x="197" y="205.7099609375">-defaultStartOptions: defaultStartOptions</text></g></g><g transform="translate(-30,10) scale(1,1)"><g><path fill="none" stroke="none"/><text fill="#000000" stroke="none" font-family="Arial" font-size="13px" font-style="normal" font-weight="normal" text-decoration="none" x="197" y="221.36899995803833">-defaultMuteMessage = "录音服务未启用"</text></g></g><g transform="translate(-30,10) scale(1,1)"><g><path fill="none" stroke="none"/><text fill="#000000" stroke="none" font-family="Arial" font-size="13px" font-style="normal" font-weight="normal" text-decoration="none" x="197" y="235.53857421875">+average = 0</text></g></g><g transform="translate(-30,10) scale(1,1)"><g><path fill="none" stroke="none"/><text fill="#000000" stroke="none" font-family="Arial" font-size="13px" font-style="normal" font-weight="normal" text-decoration="none" x="197" y="258.7099609375">+async init(deviceId?: string)</text></g></g><g transform="translate(-30,10) scale(1,1)"><g><path fill="none" stroke="none"/><text fill="#000000" stroke="none" font-family="Arial" font-size="13px" font-style="normal" font-weight="normal" text-decoration="none" x="197" y="273.7099609375">+async start(options: Partial&lt;typeof this.defaultStartOptions&gt; = {}): Promise&lt;boolean&gt;</text></g></g><g transform="translate(-30,10) scale(1,1)"><g><path fill="none" stroke="none"/><text fill="#000000" stroke="none" font-family="Arial" font-size="13px" font-style="normal" font-weight="normal" text-decoration="none" x="197" y="288.7099609375">+stop()</text></g></g><g transform="translate(-30,10) scale(1,1)"><g><path fill="none" stroke="none"/><text fill="#000000" stroke="none" font-family="Arial" font-size="13px" font-style="normal" font-weight="normal" text-decoration="none" x="197" y="303.7099609375">-onAbort()</text></g></g><g transform="translate(-30,10) scale(1,1)"><g><path fill="none" stroke="none"/><text fill="#000000" stroke="none" font-family="Arial" font-size="13px" font-style="normal" font-weight="normal" text-decoration="none" x="197" y="318.7099609375">+async onResult(): Promise&lt;Blob&gt;</text></g></g><g transform="translate(-30,10) scale(1,1)"><g><path fill="none" stroke="none"/><text fill="#000000" stroke="none" font-family="Arial" font-size="13px" font-style="normal" font-weight="normal" text-decoration="none" x="197" y="333.7099609375">+downloadAudio(blob: Blob): void</text></g></g><g transform="translate(-30,10) scale(1,1)"><g><path fill="none" stroke="none"/><text fill="#000000" stroke="none" font-family="Arial" font-size="13px" font-style="normal" font-weight="normal" text-decoration="none" x="197" y="348.7099609375">+playAudio(blob: Blob): void</text></g></g><g transform="translate(-30,10) scale(1,1)"><g><path fill="none" stroke="none"/><text fill="#000000" stroke="none" font-family="Arial" font-size="13px" font-style="normal" font-weight="normal" text-decoration="none" x="197" y="363.7099609375">+stopVoiceCheck(): void</text></g></g><g transform="translate(-30,10) scale(1,1)"><g><path fill="none" stroke="none"/><text fill="#000000" stroke="none" font-family="Arial" font-size="13px" font-style="normal" font-weight="normal" text-decoration="none" x="197" y="378.7099609375">+checkVoice(threshold    = 20, updateInterval   = 200, maxSilenceDuration = 3000): void</text></g></g><g transform="translate(-30,10) scale(1,1)"><g><path fill="none" stroke="none"/><text fill="#000000" stroke="none" font-family="Arial" font-size="13px" font-style="normal" font-weight="normal" text-decoration="none" x="197" y="393.7099609375">-getAudioTracks()</text></g></g><g transform="translate(-30,10) scale(1,1)"><g><path fill="none" stroke="none"/><text fill="#000000" stroke="none" font-family="Arial" font-size="13px" font-style="normal" font-weight="normal" text-decoration="none" x="197" y="408.7099609375">-delAudioTracks()</text></g></g><g transform="translate(-30,10) scale(1,1)"><g><path fill="none" stroke="none"/><text fill="#000000" stroke="none" font-family="Arial" font-size="13px" font-style="normal" font-weight="normal" text-decoration="none" x="197" y="423.7099609375">-calculateAudioAverage(dataArray: Uint8Array): number</text></g></g><g transform="translate(-30,10) scale(1,1)"><g><path fill="none" stroke="none"/><text fill="#000000" stroke="none" font-family="Arial" font-size="13px" font-style="normal" font-weight="normal" text-decoration="none" x="197" y="438.7099609375">-startAudioCheck(threshold: number, updateInterval: number)</text></g></g><g transform="translate(-30,10) scale(1,1)"><g><path fill="none" stroke="none"/><text fill="#000000" stroke="none" font-family="Arial" font-size="13px" font-style="normal" font-weight="normal" text-decoration="none" x="197" y="453.7099609375">-enAbledAudioTracks()</text></g></g><g transform="translate(-30,10) scale(1,1)"><g><path fill="none" stroke="none"/><text fill="#000000" stroke="none" font-family="Arial" font-size="13px" font-style="normal" font-weight="normal" text-decoration="none" x="197" y="468.7099609375">-async getDefaultAudioDeviceId(): Promise&lt;string | undefined&gt;</text></g></g><g transform="translate(-30,10) scale(1,1)"><g><path fill="none" stroke="none"/><text fill="#000000" stroke="none" font-family="Arial" font-size="13px" font-style="normal" font-weight="normal" text-decoration="none" x="197" y="483.7099609375">-setupMediaRecorder()</text></g></g><g transform="translate(-30,10) scale(1,1)"><g><path fill="none" stroke="none"/><text fill="#000000" stroke="none" font-family="Arial" font-size="13px" font-style="normal" font-weight="normal" text-decoration="none" x="197" y="498.7099609375">-resetAudioData()</text></g></g><g transform="translate(-30,10) scale(1,1)"><g><path fill="none" stroke="none"/><text fill="#000000" stroke="none" font-family="Arial" font-size="13px" font-style="normal" font-weight="normal" text-decoration="none" x="197" y="513.7099609375">-resetRecordingState()</text></g></g><g transform="translate(-30,10) scale(1,1)"><g><path fill="none" stroke="none"/><text fill="#000000" stroke="none" font-family="Arial" font-size="13px" font-style="normal" font-weight="normal" text-decoration="none" x="197" y="528.7099609375">-initRecordingState()</text></g></g><g transform="translate(-30,10) scale(1,1)"><g><path fill="none" stroke="none"/><text fill="#000000" stroke="none" font-family="Arial" font-size="13px" font-style="normal" font-weight="normal" text-decoration="none" x="197" y="543.7099609375">-initAudioState()</text></g></g><g transform="translate(-30,10) scale(1,1)"><g><path fill="none" stroke="none"/><text fill="#000000" stroke="none" font-family="Arial" font-size="13px" font-style="normal" font-weight="normal" text-decoration="none" x="197" y="558.7099609375">-resetAudioMuteState()</text></g></g><g transform="translate(-30,10) scale(1,1)"><g><path fill="none" stroke="none"/><text fill="#000000" stroke="none" font-family="Arial" font-size="13px" font-style="normal" font-weight="normal" text-decoration="none" x="197" y="573.7099609375">-resetAudioState()</text></g></g><g transform="translate(-30,10) scale(1,1)"><g><path fill="none" stroke="none"/><text fill="#000000" stroke="none" font-family="Arial" font-size="13px" font-style="normal" font-weight="normal" text-decoration="none" x="197" y="588.7099609375">-resetNoSpeechState()</text></g></g><g transform="translate(-30,10) scale(1,1)"><g><path fill="none" stroke="none"/><text fill="#000000" stroke="none" font-family="Arial" font-size="13px" font-style="normal" font-weight="normal" text-decoration="none" x="197" y="603.7099609375">-stopMediaStream()</text></g></g><g transform="translate(-30,10) scale(1,1)"><g><path fill="none" stroke="none"/><text fill="#000000" stroke="none" font-family="Arial" font-size="13px" font-style="normal" font-weight="normal" text-decoration="none" x="197" y="618.7099609375">-handleError(message: string, error: any)</text></g></g><g transform="translate(-30,10) scale(1,1)"><g><path fill="none" stroke="none"/><text fill="#000000" stroke="none" font-family="Arial" font-size="13px" font-style="normal" font-weight="normal" text-decoration="none" x="197" y="633.7099609375">-createObjectURL(blob: Blob): string</text></g></g><g transform="translate(-30,10) scale(1,1)"><g><path fill="none" stroke="none"/><text fill="#000000" stroke="none" font-family="Arial" font-size="13px" font-style="normal" font-weight="normal" text-decoration="none" x="197" y="648.7099609375">-createDownloadLink(url: string, filename: string)</text></g></g><g transform="translate(-30,10) scale(1,1)"><g><path fill="none" stroke="none"/><text fill="#000000" stroke="none" font-family="Arial" font-size="13px" font-style="normal" font-weight="normal" text-decoration="none" x="197" y="663.7099609375">+abortRecording(reason  = "abort recording and discard")</text></g></g><g transform="translate(-30,10) scale(1,1)"><g><path fill="none" stroke="none"/><text fill="#000000" stroke="none" font-family="Arial" font-size="13px" font-style="normal" font-weight="normal" text-decoration="none" x="197" y="678.7099609375">+mute(message = this.defaultMuteMessage)</text></g></g><g transform="translate(-30,10) scale(1,1)"><g><path fill="none" stroke="none"/><text fill="#000000" stroke="none" font-family="Arial" font-size="13px" font-style="normal" font-weight="normal" text-decoration="none" x="197" y="693.7099609375">+unmute(message = this.defaultMuteMessage)</text></g></g><g transform="translate(-30,10) scale(1,1)"><rect fill="#C0C0C0" stroke="none" x="239" y="1007" width="484.396484375" height="205" opacity="0.2"/></g><g transform="translate(-30,10) scale(1,1)"><rect fill="#ffffff" stroke="none" x="232" y="1000" width="484.396484375" height="205"/></g><g transform="translate(-30,10) scale(1,1)"><path fill="none" stroke="#000000" d="M 232 1000 L 716.396484375 1000 L 716.396484375 1205 L 232 1205 L 232 1000 Z Z" stroke-miterlimit="10"/></g><g transform="translate(-30,10) scale(1,1)"><path fill="none" stroke="#000000" d="M 232 1025 L 716.396484375 1025" stroke-miterlimit="10"/></g><g transform="translate(-30,10) scale(1,1)"><path fill="none" stroke="#000000" d="M 232 1093 L 716.396484375 1093" stroke-miterlimit="10"/></g><g transform="translate(-30,10) scale(1,1)"><g><path fill="none" stroke="none"/><text fill="#000000" stroke="none" font-family="Arial" font-size="13px" font-style="normal" font-weight="bold" text-decoration="none" x="392.91015625" y="1017.7099609375">SpeechRecognizerService</text></g></g><g transform="translate(-30,10) scale(1,1)"><g><path fill="none" stroke="none"/><text fill="#000000" stroke="none" font-family="Arial" font-size="13px" font-style="normal" font-weight="normal" text-decoration="none" x="237" y="1040.7099609375">+recognition: SpeechRecognition</text></g></g><g transform="translate(-30,10) scale(1,1)"><g><path fill="none" stroke="none"/><text fill="#000000" stroke="none" font-family="Arial" font-size="13px" font-style="normal" font-weight="normal" text-decoration="none" x="237" y="1055.7099609375">+language: string</text></g></g><g transform="translate(-30,10) scale(1,1)"><g><path fill="none" stroke="none"/><text fill="#000000" stroke="none" font-family="Arial" font-size="13px" font-style="normal" font-weight="normal" text-decoration="none" x="237" y="1070.7099609375">+isListening = false</text></g></g><g transform="translate(-30,10) scale(1,1)"><g><path fill="none" stroke="none"/><text fill="#000000" stroke="none" font-family="Arial" font-size="13px" font-style="normal" font-weight="normal" text-decoration="none" x="237" y="1085.7099609375">+speechRecognizerAvailable: boolean = "webkitSpeechRecognition" in window</text></g></g><g transform="translate(-30,10) scale(1,1)"><g><path fill="none" stroke="none"/><text fill="#000000" stroke="none" font-family="Arial" font-size="13px" font-style="normal" font-weight="normal" text-decoration="none" x="237" y="1108.7099609375">+initialize(language = "zh-CN")</text></g></g><g transform="translate(-30,10) scale(1,1)"><g><path fill="none" stroke="none"/><text fill="#000000" stroke="none" font-family="Arial" font-size="13px" font-style="normal" font-weight="normal" text-decoration="none" x="237" y="1123.7099609375">+setLanguage(language = "zh-CN")</text></g></g><g transform="translate(-30,10) scale(1,1)"><g><path fill="none" stroke="none"/><text fill="#000000" stroke="none" font-family="Arial" font-size="13px" font-style="normal" font-weight="normal" text-decoration="none" x="237" y="1138.7099609375">+start()</text></g></g><g transform="translate(-30,10) scale(1,1)"><g><path fill="none" stroke="none"/><text fill="#000000" stroke="none" font-family="Arial" font-size="13px" font-style="normal" font-weight="normal" text-decoration="none" x="237" y="1153.7099609375">+stop()</text></g></g><g transform="translate(-30,10) scale(1,1)"><g><path fill="none" stroke="none"/><text fill="#000000" stroke="none" font-family="Arial" font-size="13px" font-style="normal" font-weight="normal" text-decoration="none" x="237" y="1168.7099609375">+onResult(): Promise&lt;SpeechResult&gt;</text></g></g><g transform="translate(-30,10) scale(1,1)"><g><path fill="none" stroke="none"/><text fill="#000000" stroke="none" font-family="Arial" font-size="13px" font-style="normal" font-weight="normal" text-decoration="none" x="237" y="1183.7099609375">+onError(): Promise&lt;SpeechError&gt;</text></g></g><g transform="translate(-30,10) scale(1,1)"><path fill="#C0C0C0" stroke="none" d="M 99.5 1050.5 C 99.5 1039.7304464 108.2304464 1031 119 1031 C 129.7695536 1031 138.5 1039.7304464 138.5 1050.5 C 138.5 1061.2695536 129.7695536 1070 119 1070 C 108.2304464 1070 99.5 1061.2695536 99.5 1050.5 Z" opacity="0.2"/></g><g transform="translate(-30,10) scale(1,1)"><path fill="#ffffff" stroke="none" d="M 92.5 1043.5 C 92.5 1032.7304464 101.2304464 1024 112 1024 C 122.7695536 1024 131.5 1032.7304464 131.5 1043.5 C 131.5 1054.2695536 122.7695536 1063 112 1063 C 101.2304464 1063 92.5 1054.2695536 92.5 1043.5 Z"/></g><g transform="translate(-30,10) scale(1,1)"><path fill="none" stroke="#000000" d="M 92.5 1043.5 C 92.5 1032.7304464 101.2304464 1024 112 1024 C 122.7695536 1024 131.5 1032.7304464 131.5 1043.5 C 131.5 1054.2695536 122.7695536 1063 112 1063 C 101.2304464 1063 92.5 1054.2695536 92.5 1043.5 Z" stroke-miterlimit="10"/></g><g transform="translate(-30,10) scale(1,1)"><path fill="none" stroke="#000000" d="M 40 1088 L 184 1088" stroke-miterlimit="10"/></g><g transform="translate(-30,10) scale(1,1)"><g><path fill="none" stroke="none"/><text fill="#000000" stroke="none" font-family="Arial" font-size="13px" font-style="normal" font-weight="bold" text-decoration="none" x="69.013671875" y="1080.7099609375">SpeechResult</text></g></g><g transform="translate(-30,10) scale(1,1)"><g><path fill="none" stroke="none"/><text fill="#000000" stroke="none" font-family="Arial" font-size="13px" font-style="normal" font-weight="normal" text-decoration="none" x="45" y="1103.7099609375">+interimContent = ""</text></g></g><g transform="translate(-30,10) scale(1,1)"><g><path fill="none" stroke="none"/><text fill="#000000" stroke="none" font-family="Arial" font-size="13px" font-style="normal" font-weight="normal" text-decoration="none" x="45" y="1118.7099609375">+finalContent = ""</text></g></g><g transform="translate(-30,10) scale(1,1)"><g><path fill="none" stroke="none"/><text fill="#000000" stroke="none" font-family="Arial" font-size="13px" font-style="normal" font-weight="normal" text-decoration="none" x="45" y="1133.7099609375">+confidence = 0</text></g></g><g transform="translate(-30,10) scale(1,1)"><path fill="#C0C0C0" stroke="none" d="M 822.4529113769531 1026.5 C 822.4529113769531 1015.7304464 831.1833577769531 1007 841.9529113769531 1007 C 852.7224649769531 1007 861.4529113769531 1015.7304464 861.4529113769531 1026.5 C 861.4529113769531 1037.2695536 852.7224649769531 1046 841.9529113769531 1046 C 831.1833577769531 1046 822.4529113769531 1037.2695536 822.4529113769531 1026.5 Z" opacity="0.2"/></g><g transform="translate(-30,10) scale(1,1)"><path fill="#ffffff" stroke="none" d="M 815.4529113769531 1019.5 C 815.4529113769531 1008.7304464 824.1833577769531 1000 834.9529113769531 1000 C 845.7224649769531 1000 854.4529113769531 1008.7304464 854.4529113769531 1019.5 C 854.4529113769531 1030.2695536 845.7224649769531 1039 834.9529113769531 1039 C 824.1833577769531 1039 815.4529113769531 1030.2695536 815.4529113769531 1019.5 Z"/></g><g transform="translate(-30,10) scale(1,1)"><path fill="none" stroke="#000000" d="M 815.4529113769531 1019.5 C 815.4529113769531 1008.7304464 824.1833577769531 1000 834.9529113769531 1000 C 845.7224649769531 1000 854.4529113769531 1008.7304464 854.4529113769531 1019.5 C 854.4529113769531 1030.2695536 845.7224649769531 1039 834.9529113769531 1039 C 824.1833577769531 1039 815.4529113769531 1030.2695536 815.4529113769531 1019.5 Z" stroke-miterlimit="10"/></g><g transform="translate(-30,10) scale(1,1)"><path fill="none" stroke="#000000" d="M 728 1064 L 941.9058227539062 1064" stroke-miterlimit="10"/></g><g transform="translate(-30,10) scale(1,1)"><g><path fill="none" stroke="none"/><text fill="#000000" stroke="none" font-family="Arial" font-size="13px" font-style="normal" font-weight="bold" text-decoration="none" x="795.9370422363281" y="1056.7099609375">SpeechError</text></g></g><g transform="translate(-30,10) scale(1,1)"><g><path fill="none" stroke="none"/><text fill="#000000" stroke="none" font-family="Arial" font-size="13px" font-style="normal" font-weight="normal" text-decoration="none" x="733" y="1079.7099609375">+NoSpeech = "no-speech"</text></g></g><g transform="translate(-30,10) scale(1,1)"><g><path fill="none" stroke="none"/><text fill="#000000" stroke="none" font-family="Arial" font-size="13px" font-style="normal" font-weight="normal" text-decoration="none" x="733" y="1094.7099609375">+AudioCapture = "audio-capture"</text></g></g><g transform="translate(-30,10) scale(1,1)"><g><path fill="none" stroke="none"/><text fill="#000000" stroke="none" font-family="Arial" font-size="13px" font-style="normal" font-weight="normal" text-decoration="none" x="733" y="1109.7099609375">+NotAllowed = "not-allowed"</text></g></g><g transform="translate(-30,10) scale(1,1)"><g><path fill="none" stroke="none"/><text fill="#000000" stroke="none" font-family="Arial" font-size="13px" font-style="normal" font-weight="normal" text-decoration="none" x="733" y="1124.7099609375">+NetWork = "network"</text></g></g><g transform="translate(-30,10) scale(1,1)"><g><path fill="none" stroke="none"/><text fill="#000000" stroke="none" font-family="Arial" font-size="13px" font-style="normal" font-weight="normal" text-decoration="none" x="733" y="1139.7099609375">+Aborted = "aborted"</text></g></g><g transform="translate(-30,10) scale(1,1)"><g><path fill="none" stroke="none"/><text fill="#000000" stroke="none" font-family="Arial" font-size="13px" font-style="normal" font-weight="normal" text-decoration="none" x="733" y="1154.7099609375">+Unknown = "unknown"</text></g></g><g transform="translate(-30,10) scale(1,1)"><rect fill="#C0C0C0" stroke="none" x="95" y="735" width="760.0611572265625" height="240" opacity="0.2"/></g><g transform="translate(-30,10) scale(1,1)"><rect fill="#ffffff" stroke="none" x="88" y="728" width="760.0611572265625" height="240"/></g><g transform="translate(-30,10) scale(1,1)"><path fill="none" stroke="#000000" d="M 88 728 L 848.0611572265625 728 L 848.0611572265625 968 L 88 968 L 88 728 Z Z" stroke-miterlimit="10"/></g><g transform="translate(-30,10) scale(1,1)"><path fill="none" stroke="#000000" d="M 88 753 L 848.0611572265625 753" stroke-miterlimit="10"/></g><g transform="translate(-30,10) scale(1,1)"><path fill="none" stroke="#000000" d="M 88 791 L 848.0611572265625 791" stroke-miterlimit="10"/></g><g transform="translate(-30,10) scale(1,1)"><g><path fill="none" stroke="none"/><text fill="#000000" stroke="none" font-family="Arial" font-size="13px" font-style="normal" font-weight="bold" text-decoration="none" x="374.23126220703125" y="745.7099609375">WebmToWavConverterService</text></g></g><g transform="translate(-30,10) scale(1,1)"><g><path fill="none" stroke="none"/><text fill="#000000" stroke="none" font-family="Arial" font-size="13px" font-style="normal" font-weight="normal" text-decoration="none" x="93" y="768.7099609375">+lastAudioContextOptions?: AudioContextOptions;</text></g></g><g transform="translate(-30,10) scale(1,1)"><g><path fill="none" stroke="none"/><text fill="#000000" stroke="none" font-family="Arial" font-size="13px" font-style="normal" font-weight="normal" text-decoration="none" x="93" y="783.7099609375">+audioContext: AudioContext | null = null;</text></g></g><g transform="translate(-30,10) scale(1,1)"><g><path fill="none" stroke="none"/><text fill="#000000" stroke="none" font-family="Arial" font-size="13px" font-style="normal" font-weight="normal" text-decoration="none" x="93" y="806.7099609375">+convertWebmToWav(webmBlob: Blob, bitDepth: 16 | 24 | 32 = 16, options?: AudioContextOptions): Promise&lt;Blob&gt;</text></g></g><g transform="translate(-30,10) scale(1,1)"><g><path fill="none" stroke="none"/><text fill="#000000" stroke="none" font-family="Arial" font-size="13px" font-style="normal" font-weight="normal" text-decoration="none" x="93" y="821.7099609375">+getWaveBlob(blobData: Blob | Blob, as32BitFloat: boolean = false, contextOptions?: AudioContextOptions): Promise&lt;Blob&gt;</text></g></g><g transform="translate(-30,10) scale(1,1)"><g><path fill="none" stroke="none"/><text fill="#000000" stroke="none" font-family="Arial" font-size="13px" font-style="normal" font-weight="normal" text-decoration="none" x="93" y="836.7099609375">-audioBufferToWav(audioBuffer: AudioBuffer, bitDepth: number): Blob</text></g></g><g transform="translate(-30,10) scale(1,1)"><g><path fill="none" stroke="none"/><text fill="#000000" stroke="none" font-family="Arial" font-size="13px" font-style="normal" font-weight="normal" text-decoration="none" x="93" y="851.7099609375">-writeWavHeader(view: DataView, numOfChannels: number, sampleRate: number, bitDepth: number, bufferLength: number)</text></g></g><g transform="translate(-30,10) scale(1,1)"><g><path fill="none" stroke="none"/><text fill="#000000" stroke="none" font-family="Arial" font-size="13px" font-style="normal" font-weight="normal" text-decoration="none" x="93" y="866.7099609375">-writeAudioData(view: DataView, audioBuffer: AudioBuffer, offset: number, bitDepth: number)</text></g></g><g transform="translate(-30,10) scale(1,1)"><g><path fill="none" stroke="none"/><text fill="#000000" stroke="none" font-family="Arial" font-size="13px" font-style="normal" font-weight="normal" text-decoration="none" x="93" y="881.7099609375">-_writeStringToArray(aString: string, targetArray: Uint8Array, offset: number): void</text></g></g><g transform="translate(-30,10) scale(1,1)"><g><path fill="none" stroke="none"/><text fill="#000000" stroke="none" font-family="Arial" font-size="13px" font-style="normal" font-weight="normal" text-decoration="none" x="93" y="896.7099609375">-_writeInt16ToArray(aNumber: number, targetArray: Uint8Array, offset: number): void</text></g></g><g transform="translate(-30,10) scale(1,1)"><g><path fill="none" stroke="none"/><text fill="#000000" stroke="none" font-family="Arial" font-size="13px" font-style="normal" font-weight="normal" text-decoration="none" x="93" y="911.7099609375">-_writeInt32ToArray(aNumber: number, targetArray: Uint8Array, offset: number): void</text></g></g><g transform="translate(-30,10) scale(1,1)"><g><path fill="none" stroke="none"/><text fill="#000000" stroke="none" font-family="Arial" font-size="13px" font-style="normal" font-weight="normal" text-decoration="none" x="93" y="926.7099609375">-_floatBits(f: number): number</text></g></g><g transform="translate(-30,10) scale(1,1)"><g><path fill="none" stroke="none"/><text fill="#000000" stroke="none" font-family="Arial" font-size="13px" font-style="normal" font-weight="normal" text-decoration="none" x="93" y="941.7099609375">-_writeAudioBufferToArray(audioBuffer: AudioBuffer, targetArray: Uint8Array, offset: number, bitDepth: number): void</text></g></g><g transform="translate(-30,10) scale(1,1)"><g><path fill="none" stroke="none"/><text fill="#000000" stroke="none" font-family="Arial" font-size="13px" font-style="normal" font-weight="normal" text-decoration="none" x="93" y="956.7099609375">-_getAudioBuffer(blobData: Blob | Blob, contextOptions?: AudioContextOptions): Promise&lt;AudioBuffer&gt;</text></g></g><g transform="translate(-30,10) scale(1,1)"><path fill="none" stroke="#000000" d="M 416 700 L 416 728" stroke-miterlimit="10" stroke-dasharray="3"/></g><g transform="translate(-30,10) scale(1,1)"><path fill="none" stroke="#000000" d="M 411.790482243984 717.8373251423759 L 416 728 L 420.209517756016 717.8373251423759" stroke-miterlimit="10"/></g><g transform="translate(-30,10) scale(1,1)"><path fill="none" stroke="#000000" d="M 832 1000 L 832 976 L 968 976 L 968 1176 L 716 1176" stroke-miterlimit="10"/></g><g transform="translate(-30,10) scale(1,1)"><path fill="none" stroke="#000000" d="M 112 1024 L 112 1003 L 214 1003 L 214 1160 L 232 1160" stroke-miterlimit="10"/></g><g transform="translate(-30,10) scale(1,1)"><path fill="#C0C0C0" stroke="none" d="M 835.830322265625 42.5 C 835.830322265625 36.1487248 840.979047065625 31 847.330322265625 31 C 853.681597465625 31 858.830322265625 36.1487248 858.830322265625 42.5 C 858.830322265625 48.8512752 853.681597465625 54 847.330322265625 54 C 840.979047065625 54 835.830322265625 48.8512752 835.830322265625 42.5 Z" opacity="0.2"/></g><g transform="translate(-30,10) scale(1,1)"><path fill="#ffffff" stroke="none" d="M 828.830322265625 35.5 C 828.830322265625 29.1487248 833.979047065625 24 840.330322265625 24 C 846.681597465625 24 851.830322265625 29.1487248 851.830322265625 35.5 C 851.830322265625 41.8512752 846.681597465625 47 840.330322265625 47 C 833.979047065625 47 828.830322265625 41.8512752 828.830322265625 35.5 Z"/></g><g transform="translate(-30,10) scale(1,1)"><path fill="none" stroke="#000000" d="M 828.830322265625 35.5 C 828.830322265625 29.1487248 833.979047065625 24 840.330322265625 24 C 846.681597465625 24 851.830322265625 29.1487248 851.830322265625 35.5 C 851.830322265625 41.8512752 846.681597465625 47 840.330322265625 47 C 833.979047065625 47 828.830322265625 41.8512752 828.830322265625 35.5 Z" stroke-miterlimit="10"/></g><g transform="translate(-30,10) scale(1,1)"><path fill="none" stroke="#000000" d="M 752 72 L 928.66064453125 72" stroke-miterlimit="10"/></g><g transform="translate(-30,10) scale(1,1)"><g><path fill="none" stroke="none"/><text fill="#000000" stroke="none" font-family="Arial" font-size="13px" font-style="normal" font-weight="bold" text-decoration="none" x="779.66259765625" y="64.7099609375">defaultStartOptions</text></g></g><g transform="translate(-30,10) scale(1,1)"><g><path fill="none" stroke="none"/><text fill="#000000" stroke="none" font-family="Arial" font-size="13px" font-style="normal" font-weight="normal" text-decoration="none" x="757" y="87.7099609375">+threshold = 22</text></g></g><g transform="translate(-30,10) scale(1,1)"><g><path fill="none" stroke="none"/><text fill="#000000" stroke="none" font-family="Arial" font-size="13px" font-style="normal" font-weight="normal" text-decoration="none" x="757" y="102.7099609375">+updateInterval = 200</text></g></g><g transform="translate(-30,10) scale(1,1)"><g><path fill="none" stroke="none"/><text fill="#000000" stroke="none" font-family="Arial" font-size="13px" font-style="normal" font-weight="normal" text-decoration="none" x="757" y="117.7099609375">+maxSilenceDuration = 3000</text></g></g><g transform="translate(-30,10) scale(1,1)"><g><path fill="none" stroke="none"/><text fill="#000000" stroke="none" font-family="Arial" font-size="13px" font-style="normal" font-weight="normal" text-decoration="none" x="757" y="132.7099609375">+noSpeechIsError = false</text></g></g><g transform="translate(-30,10) scale(1,1)"><g><path fill="none" stroke="none"/><text fill="#000000" stroke="none" font-family="Arial" font-size="13px" font-style="normal" font-weight="normal" text-decoration="none" x="757" y="147.7099609375">+timeSlice = 1000</text></g></g><g transform="translate(-30,10) scale(1,1)"><path fill="none" stroke="#000000" d="M 840 24 L 840 3 L 958 3 L 958 168 L 737 168" stroke-miterlimit="10"/></g></g></svg>