<svg version="1.1" xmlns="http://www.w3.org/2000/svg" xmlns:xlink="http://www.w3.org/1999/xlink" width="917" height="1038"><defs/><g><g transform="translate(-154,-27) scale(1,1)"><rect fill="#C0C0C0" stroke="none" x="195" y="332" width="693.6201171875" height="207" opacity="0.2"/></g><g transform="translate(-154,-27) scale(1,1)"><rect fill="#ffffff" stroke="none" x="188" y="325" width="693.6201171875" height="207"/></g><g transform="translate(-154,-27) scale(1,1)"><path fill="none" stroke="#000000" d="M 188 325 L 881.6201171875 325 L 881.6201171875 532 L 188 532 L 188 325 Z Z" stroke-miterlimit="10"/></g><g transform="translate(-154,-27) scale(1,1)"><path fill="none" stroke="#000000" d="M 188 350 L 881.6201171875 350" stroke-miterlimit="10"/></g><g transform="translate(-154,-27) scale(1,1)"><path fill="none" stroke="#000000" d="M 188 373 L 881.6201171875 373" stroke-miterlimit="10"/></g><g transform="translate(-154,-27) scale(1,1)"><g><path fill="none" stroke="none"/><text fill="#000000" stroke="none" font-family="Arial" font-size="13px" font-style="normal" font-weight="bold" text-decoration="none" x="499.40283203125" y="342.7099609375">TTSService</text></g></g><g transform="translate(-154,-27) scale(1,1)"><g><path fill="none" stroke="none"/><text fill="#000000" stroke="none" font-family="Arial" font-size="13px" font-style="normal" font-weight="normal" text-decoration="none" x="193" y="365.7099609375">+speechSynthesizerService!: SpeechSynthesizerService;</text></g></g><g transform="translate(-154,-27) scale(1,1)"><g><path fill="none" stroke="none"/><text fill="#000000" stroke="none" font-family="Arial" font-size="13px" font-style="normal" font-weight="normal" text-decoration="none" x="193" y="390.7099609375">+tts(params: TTSData, ttsAtobMode: TTSAtobMode = TTSAtobMode.JSBASE64)</text></g></g><g transform="translate(-154,-27) scale(1,1)"><g><path fill="none" stroke="none"/><text fill="#000000" stroke="none" font-family="Arial" font-size="13px" font-style="normal" font-weight="normal" text-decoration="none" x="193" y="405.7099609375">+speak(params: TTSData): SpeakResult</text></g></g><g transform="translate(-154,-27) scale(1,1)"><g><path fill="none" stroke="none"/><text fill="#000000" stroke="none" font-family="Arial" font-size="13px" font-style="normal" font-weight="normal" text-decoration="none" x="193" y="420.8115234375">+combineTTS(params: TTSData, combTtsExecStr: `${CombTTSExecStrategy}` = CombTTSExecStrategy.BROWSER)</text></g></g><g transform="translate(-154,-27) scale(1,1)"><g><path fill="none" stroke="none"/><text fill="#000000" stroke="none" font-family="Arial" font-size="13px" font-style="normal" font-weight="normal" text-decoration="none" x="193" y="435.7099609375">+jsBase64AtobStr(base64Str: string): string</text></g></g><g transform="translate(-154,-27) scale(1,1)"><g><path fill="none" stroke="none"/><text fill="#000000" stroke="none" font-family="Arial" font-size="13px" font-style="normal" font-weight="normal" text-decoration="none" x="193" y="450.7099609375">+windowAtobBase64Str(base64Str: string): string</text></g></g><g transform="translate(-154,-27) scale(1,1)"><g><path fill="none" stroke="none"/><text fill="#000000" stroke="none" font-family="Arial" font-size="13px" font-style="normal" font-weight="normal" text-decoration="none" x="193" y="465.7099609375">+base64StrReplace(base64Str: string): string</text></g></g><g transform="translate(-154,-27) scale(1,1)"><g><path fill="none" stroke="none"/><text fill="#000000" stroke="none" font-family="Arial" font-size="13px" font-style="normal" font-weight="normal" text-decoration="none" x="193" y="480.7099609375">+binaryStrToUint8Array(binaryString: string): Unit8Array</text></g></g><g transform="translate(-154,-27) scale(1,1)"><g><path fill="none" stroke="none"/><text fill="#000000" stroke="none" font-family="Arial" font-size="13px" font-style="normal" font-weight="normal" text-decoration="none" x="193" y="495.7099609375">+uint8ArrayToBlob(uint8Array: Uint8Array, mimeType: AudioType = AudioType.WAV): Blob</text></g></g><g transform="translate(-154,-27) scale(1,1)"><g><path fill="none" stroke="none"/><text fill="#000000" stroke="none" font-family="Arial" font-size="13px" font-style="normal" font-weight="normal" text-decoration="none" x="193" y="510.7099609375">+atobBase64ToBlob(base64Str: string, ttsAtobMode: TTSAtobMode): Blob</text></g></g><g transform="translate(-154,-27) scale(1,1)"><g><path fill="none" stroke="none"/><text fill="#000000" stroke="none" font-family="Arial" font-size="13px" font-style="normal" font-weight="normal" text-decoration="none" x="193" y="525.7099609375">+playAudio(audioBlob: Blob)</text></g></g><g transform="translate(-154,-27) scale(1,1)"><rect fill="#C0C0C0" stroke="none" x="187" y="932" width="584" height="130" opacity="0.2"/></g><g transform="translate(-154,-27) scale(1,1)"><rect fill="#ffffff" stroke="none" x="180" y="925" width="584" height="130"/></g><g transform="translate(-154,-27) scale(1,1)"><path fill="none" stroke="#000000" d="M 180 925 L 764 925 L 764 1055 L 180 1055 L 180 925 Z Z" stroke-miterlimit="10"/></g><g transform="translate(-154,-27) scale(1,1)"><path fill="none" stroke="#000000" d="M 180 950 L 764 950" stroke-miterlimit="10"/></g><g transform="translate(-154,-27) scale(1,1)"><path fill="none" stroke="#000000" d="M 180 1003 L 764 1003" stroke-miterlimit="10"/></g><g transform="translate(-154,-27) scale(1,1)"><g><path fill="none" stroke="none"/><text fill="#000000" stroke="none" font-family="Arial" font-size="13px" font-style="normal" font-weight="bold" text-decoration="none" x="389.261474609375" y="942.7099609375">SpeechSynthesizerService</text></g></g><g transform="translate(-154,-27) scale(1,1)"><g><path fill="none" stroke="none"/><text fill="#000000" stroke="none" font-family="Arial" font-size="13px" font-style="normal" font-weight="normal" text-decoration="none" x="185" y="965.7099609375">+speechSynthesizer!: SpeechSynthesisUtterance;</text></g></g><g transform="translate(-154,-27) scale(1,1)"><g><path fill="none" stroke="none"/><text fill="#000000" stroke="none" font-family="Arial" font-size="13px" font-style="normal" font-weight="normal" text-decoration="none" x="185" y="980.7099609375">+speechSynthesizerAvailable: boolean = "speechSynthesis" in window;</text></g></g><g transform="translate(-154,-27) scale(1,1)"><g><path fill="none" stroke="none"/><text fill="#000000" stroke="none" font-family="Arial" font-size="13px" font-style="normal" font-weight="normal" text-decoration="none" x="185" y="995.7099609375">+voices: SpeechSynthesisVoice = [];</text></g></g><g transform="translate(-154,-27) scale(1,1)"><g><path fill="none" stroke="none"/><text fill="#000000" stroke="none" font-family="Arial" font-size="13px" font-style="normal" font-weight="normal" text-decoration="none" x="185" y="1018.7099609375">+initSynthesis()</text></g></g><g transform="translate(-154,-27) scale(1,1)"><g><path fill="none" stroke="none"/><text fill="#000000" stroke="none" font-family="Arial" font-size="13px" font-style="normal" font-weight="normal" text-decoration="none" x="185" y="1033.7099609375">+speak(message: string, language: string = "zh-CN"): SpeakResult | void</text></g></g><g transform="translate(-154,-27) scale(1,1)"><g><path fill="none" stroke="none"/><text fill="#000000" stroke="none" font-family="Arial" font-size="13px" font-style="normal" font-weight="normal" text-decoration="none" x="185" y="1048.7099609375">+getVoices(): SpeechSynthesisVoice</text></g></g><g transform="translate(-154,-27) scale(1,1)"><path fill="#C0C0C0" stroke="none" d="M 412.8129348754883 186.5 C 412.8129348754883 169.6553136 426.4682484754883 156 443.3129348754883 156 C 460.1576212754883 156 473.8129348754883 169.6553136 473.8129348754883 186.5 C 473.8129348754883 203.3446864 460.1576212754883 217 443.3129348754883 217 C 426.4682484754883 217 412.8129348754883 203.3446864 412.8129348754883 186.5 Z" opacity="0.2"/></g><g transform="translate(-154,-27) scale(1,1)"><path fill="#ffffff" stroke="none" d="M 405.8129348754883 179.5 C 405.8129348754883 162.6553136 419.4682484754883 149 436.3129348754883 149 C 453.1576212754883 149 466.8129348754883 162.6553136 466.8129348754883 179.5 C 466.8129348754883 196.3446864 453.1576212754883 210 436.3129348754883 210 C 419.4682484754883 210 405.8129348754883 196.3446864 405.8129348754883 179.5 Z"/></g><g transform="translate(-154,-27) scale(1,1)"><path fill="none" stroke="#000000" d="M 405.8129348754883 179.5 C 405.8129348754883 162.6553136 419.4682484754883 149 436.3129348754883 149 C 453.1576212754883 149 466.8129348754883 162.6553136 466.8129348754883 179.5 C 466.8129348754883 196.3446864 453.1576212754883 210 436.3129348754883 210 C 419.4682484754883 210 405.8129348754883 196.3446864 405.8129348754883 179.5 Z" stroke-miterlimit="10"/></g><g transform="translate(-154,-27) scale(1,1)"><path fill="none" stroke="#000000" d="M 372 235 L 500.62586975097656 235" stroke-miterlimit="10"/></g><g transform="translate(-154,-27) scale(1,1)"><path fill="none" stroke="#000000" d="M 372 288 L 500.62586975097656 288" stroke-miterlimit="10"/></g><g transform="translate(-154,-27) scale(1,1)"><g><path fill="none" stroke="none"/><text fill="#000000" stroke="none" font-family="Arial" font-size="13px" font-style="normal" font-weight="bold" text-decoration="none" x="409.9479446411133" y="227.53857421875">TTSData</text></g></g><g transform="translate(-154,-27) scale(1,1)"><g><path fill="none" stroke="none"/><text fill="#000000" stroke="none" font-family="Arial" font-size="13px" font-style="normal" font-weight="normal" text-decoration="none" x="377" y="250.7099609375">+text: string</text></g></g><g transform="translate(-154,-27) scale(1,1)"><g><path fill="none" stroke="none"/><text fill="#000000" stroke="none" font-family="Arial" font-size="13px" font-style="normal" font-weight="normal" text-decoration="none" x="377" y="265.8115234375">+voc: `${TTSVoice}`</text></g></g><g transform="translate(-154,-27) scale(1,1)"><g><path fill="none" stroke="none"/><text fill="#000000" stroke="none" font-family="Arial" font-size="13px" font-style="normal" font-weight="normal" text-decoration="none" x="377" y="280.7099609375">+lang: string</text></g></g><g transform="translate(-154,-27) scale(1,1)"><path fill="#C0C0C0" stroke="none" d="M 213 114 C 213 97.431456 226.431456 84 243 84 C 259.568544 84 273 97.431456 273 114 C 273 130.568544 259.568544 144 243 144 C 226.431456 144 213 130.568544 213 114 Z" opacity="0.2"/></g><g transform="translate(-154,-27) scale(1,1)"><path fill="#ffffff" stroke="none" d="M 206 107 C 206 90.431456 219.431456 77 236 77 C 252.568544 77 266 90.431456 266 107 C 266 123.568544 252.568544 137 236 137 C 219.431456 137 206 123.568544 206 107 Z"/></g><g transform="translate(-154,-27) scale(1,1)"><path fill="none" stroke="#000000" d="M 206 107 C 206 90.431456 219.431456 77 236 77 C 252.568544 77 266 90.431456 266 107 C 266 123.568544 252.568544 137 236 137 C 219.431456 137 206 123.568544 206 107 Z" stroke-miterlimit="10"/></g><g transform="translate(-154,-27) scale(1,1)"><path fill="none" stroke="#000000" d="M 164 162 L 308 162" stroke-miterlimit="10"/></g><g transform="translate(-154,-27) scale(1,1)"><g><path fill="none" stroke="none"/><text fill="#000000" stroke="none" font-family="Arial" font-size="13px" font-style="normal" font-weight="bold" text-decoration="none" x="206.8642578125" y="154.7099609375">TTSVoice</text></g></g><g transform="translate(-154,-27) scale(1,1)"><g><path fill="none" stroke="none"/><text fill="#000000" stroke="none" font-family="Arial" font-size="13px" font-style="normal" font-weight="normal" text-decoration="none" x="169" y="177.471923828125">+man = "man""</text></g></g><g transform="translate(-154,-27) scale(1,1)"><g><path fill="none" stroke="none"/><text fill="#000000" stroke="none" font-family="Arial" font-size="13px" font-style="normal" font-weight="normal" text-decoration="none" x="169" y="192.471923828125">+woman = "woman"</text></g></g><g transform="translate(-154,-27) scale(1,1)"><path fill="#C0C0C0" stroke="none" d="M 661.095832824707 194 C 661.095832824707 177.431456 674.5272888247071 164 691.095832824707 164 C 707.664376824707 164 721.095832824707 177.431456 721.095832824707 194 C 721.095832824707 210.568544 707.664376824707 224 691.095832824707 224 C 674.5272888247071 224 661.095832824707 210.568544 661.095832824707 194 Z" opacity="0.2"/></g><g transform="translate(-154,-27) scale(1,1)"><path fill="#ffffff" stroke="none" d="M 654.095832824707 187 C 654.095832824707 170.431456 667.5272888247071 157 684.095832824707 157 C 700.664376824707 157 714.095832824707 170.431456 714.095832824707 187 C 714.095832824707 203.568544 700.664376824707 217 684.095832824707 217 C 667.5272888247071 217 654.095832824707 203.568544 654.095832824707 187 Z"/></g><g transform="translate(-154,-27) scale(1,1)"><path fill="none" stroke="#000000" d="M 654.095832824707 187 C 654.095832824707 170.431456 667.5272888247071 157 684.095832824707 157 C 700.664376824707 157 714.095832824707 170.431456 714.095832824707 187 C 714.095832824707 203.568544 700.664376824707 217 684.095832824707 217 C 667.5272888247071 217 654.095832824707 203.568544 654.095832824707 187 Z" stroke-miterlimit="10"/></g><g transform="translate(-154,-27) scale(1,1)"><path fill="none" stroke="#000000" d="M 581.6864471435547 242 L 786.5052185058594 242" stroke-miterlimit="10"/></g><g transform="translate(-154,-27) scale(1,1)"><g><path fill="none" stroke="none"/><text fill="#000000" stroke="none" font-family="Arial" font-size="13px" font-style="normal" font-weight="bold" text-decoration="none" x="640.049446105957" y="234.7099609375">TTSAtobMode</text></g></g><g transform="translate(-154,-27) scale(1,1)"><g><path fill="none" stroke="none"/><text fill="#000000" stroke="none" font-family="Arial" font-size="13px" font-style="normal" font-weight="normal" text-decoration="none" x="586.6864471435547" y="257.7099609375">+"WINDOW" = "window.atob"</text></g></g><g transform="translate(-154,-27) scale(1,1)"><g><path fill="none" stroke="none"/><text fill="#000000" stroke="none" font-family="Arial" font-size="13px" font-style="normal" font-weight="normal" text-decoration="none" x="586.6864471435547" y="272.7099609375">+"JSBASE64" = "jsbase64.atob"</text></g></g><g transform="translate(-154,-27) scale(1,1)"><path fill="#C0C0C0" stroke="none" d="M 463.79791259765625 827.5 C 463.79791259765625 818.9395856 470.73749819765624 812 479.29791259765625 812 C 487.85832699765626 812 494.79791259765625 818.9395856 494.79791259765625 827.5 C 494.79791259765625 836.0604144 487.85832699765626 843 479.29791259765625 843 C 470.73749819765624 843 463.79791259765625 836.0604144 463.79791259765625 827.5 Z" opacity="0.2"/></g><g transform="translate(-154,-27) scale(1,1)"><path fill="#ffffff" stroke="none" d="M 456.79791259765625 820.5 C 456.79791259765625 811.9395856 463.73749819765624 805 472.29791259765625 805 C 480.85832699765626 805 487.79791259765625 811.9395856 487.79791259765625 820.5 C 487.79791259765625 829.0604144 480.85832699765626 836 472.29791259765625 836 C 463.73749819765624 836 456.79791259765625 829.0604144 456.79791259765625 820.5 Z"/></g><g transform="translate(-154,-27) scale(1,1)"><path fill="none" stroke="#000000" d="M 456.79791259765625 820.5 C 456.79791259765625 811.9395856 463.73749819765624 805 472.29791259765625 805 C 480.85832699765626 805 487.79791259765625 811.9395856 487.79791259765625 820.5 C 487.79791259765625 829.0604144 480.85832699765626 836 472.29791259765625 836 C 463.73749819765624 836 456.79791259765625 829.0604144 456.79791259765625 820.5 Z" stroke-miterlimit="10"/></g><g transform="translate(-154,-27) scale(1,1)"><path fill="none" stroke="#000000" d="M 332 861 L 612.5958251953125 861" stroke-miterlimit="10"/></g><g transform="translate(-154,-27) scale(1,1)"><g><path fill="none" stroke="none"/><text fill="#000000" stroke="none" font-family="Arial" font-size="13px" font-style="normal" font-weight="bold" text-decoration="none" x="433.28204345703125" y="853.7099609375">SpeakResult</text></g></g><g transform="translate(-154,-27) scale(1,1)"><g><path fill="none" stroke="none"/><text fill="#000000" stroke="none" font-family="Arial" font-size="13px" font-style="normal" font-weight="normal" text-decoration="none" x="337" y="876.7099609375">+code = 503</text></g></g><g transform="translate(-154,-27) scale(1,1)"><g><path fill="none" stroke="none"/><text fill="#000000" stroke="none" font-family="Arial" font-size="13px" font-style="normal" font-weight="normal" text-decoration="none" x="337" y="892.3624997138977">+message = "浏览器不支持 Web Speech API"</text></g></g><g transform="translate(-154,-27) scale(1,1)"><path fill="none" stroke="#000000" d="M 236 77 L 236 37 L 436 37 L 436 149" stroke-miterlimit="10"/></g><g transform="translate(-154,-27) scale(1,1)"><path fill="none" stroke="#000000" d="M 679 157 L 679 137 L 806 137 L 806 325" stroke-miterlimit="10"/></g><g transform="translate(-154,-27) scale(1,1)"><path fill="none" stroke="#000000" d="M 472 805 L 472 797 L 636 797 L 636 925" stroke-miterlimit="10"/></g><g transform="translate(-154,-27) scale(1,1)"><path fill="none" stroke="#000000" d="M 436 149 L 436 128 L 530 128 L 530 325" stroke-miterlimit="10"/></g><g transform="translate(-154,-27) scale(1,1)"><rect fill="#C0C0C0" stroke="none" x="415" y="663" width="268.7333984375" height="85" opacity="0.2"/></g><g transform="translate(-154,-27) scale(1,1)"><rect fill="#ffffff" stroke="none" x="408" y="656" width="268.7333984375" height="85"/></g><g transform="translate(-154,-27) scale(1,1)"><path fill="none" stroke="#000000" d="M 408 656 L 676.7333984375 656 L 676.7333984375 741 L 408 741 L 408 656 Z Z" stroke-miterlimit="10"/></g><g transform="translate(-154,-27) scale(1,1)"><path fill="none" stroke="#000000" d="M 408 681 L 676.7333984375 681" stroke-miterlimit="10"/></g><g transform="translate(-154,-27) scale(1,1)"><path fill="none" stroke="#000000" d="M 408 704 L 676.7333984375 704" stroke-miterlimit="10"/></g><g transform="translate(-154,-27) scale(1,1)"><g><path fill="none" stroke="none"/><text fill="#000000" stroke="none" font-family="Arial" font-size="13px" font-style="normal" font-weight="bold" text-decoration="none" x="455.42919921875" y="673.7099609375">VoiceFusionRequestService</text></g></g><g transform="translate(-154,-27) scale(1,1)"><g><path fill="none" stroke="none"/><text fill="#000000" stroke="none" font-family="Arial" font-size="13px" font-style="normal" font-weight="normal" text-decoration="none" x="413" y="696.471923828125">+env: Env</text></g></g><g transform="translate(-154,-27) scale(1,1)"><g><path fill="none" stroke="none"/><text fill="#000000" stroke="none" font-family="Arial" font-size="13px" font-style="normal" font-weight="normal" text-decoration="none" x="413" y="719.7099609375">+async tts(data: TTSData): Promise&lt;string&gt;</text></g></g><g transform="translate(-154,-27) scale(1,1)"><g><path fill="none" stroke="none"/><text fill="#000000" stroke="none" font-family="Arial" font-size="13px" font-style="normal" font-weight="normal" text-decoration="none" x="413" y="734.7099609375">+async stt(data: FormData): Promise&lt;string&gt;</text></g></g><g transform="translate(-154,-27) scale(1,1)"><rect fill="#C0C0C0" stroke="none" x="223" y="671" width="125.34619140625" height="75" opacity="0.2"/></g><g transform="translate(-154,-27) scale(1,1)"><rect fill="#ffffff" stroke="none" x="216" y="664" width="125.34619140625" height="75"/></g><g transform="translate(-154,-27) scale(1,1)"><path fill="none" stroke="#000000" d="M 216 664 L 341.34619140625 664 L 341.34619140625 739 L 216 739 L 216 664 Z Z" stroke-miterlimit="10"/></g><g transform="translate(-154,-27) scale(1,1)"><path fill="none" stroke="#000000" d="M 216 702 L 341.34619140625 702" stroke-miterlimit="10"/></g><g transform="translate(-154,-27) scale(1,1)"><g><path fill="none" stroke="none"/><text fill="#000000" stroke="none" font-family="Arial" font-size="13px" font-style="normal" font-weight="normal" text-decoration="none" x="235.30908203125" y="679.7099609375">«enumeration»</text></g></g><g transform="translate(-154,-27) scale(1,1)"><g><path fill="none" stroke="none"/><text fill="#000000" stroke="none" font-family="Arial" font-size="13px" font-style="normal" font-weight="bold" text-decoration="none" x="266.752197265625" y="694.471923828125">Env</text></g></g><g transform="translate(-154,-27) scale(1,1)"><g><path fill="none" stroke="none"/><text fill="#000000" stroke="none" font-family="Arial" font-size="13px" font-style="normal" font-weight="normal" text-decoration="none" x="221" y="717.7099609375">dev</text></g></g><g transform="translate(-154,-27) scale(1,1)"><g><path fill="none" stroke="none"/><text fill="#000000" stroke="none" font-family="Arial" font-size="13px" font-style="normal" font-weight="normal" text-decoration="none" x="221" y="732.2021484375">test</text></g></g><g transform="translate(-154,-27) scale(1,1)"><path fill="none" stroke="#000000" d="M 278 664 L 278 643 L 370 643 L 370 701 L 408 701" stroke-miterlimit="10"/></g><g transform="translate(-154,-27) scale(1,1)"><path fill="none" stroke="#000000" d="M 480 532 L 480 656" stroke-miterlimit="10" stroke-dasharray="3"/></g><g transform="translate(-154,-27) scale(1,1)"><path fill="none" stroke="#000000" d="M 475.790482243984 645.8373251423759 L 480 656 L 484.209517756016 645.8373251423759" stroke-miterlimit="10"/></g><g transform="translate(-154,-27) scale(1,1)"><path fill="none" stroke="#000000" d="M 744 532 L 744 925" stroke-miterlimit="10" stroke-dasharray="3"/></g><g transform="translate(-154,-27) scale(1,1)"><path fill="none" stroke="#000000" d="M 739.790482243984 914.8373251423759 L 744 925 L 748.209517756016 914.8373251423759" stroke-miterlimit="10"/></g><g transform="translate(-154,-27) scale(1,1)"><path fill="#C0C0C0" stroke="none" d="M 925.9892578125 167.5 C 925.9892578125 153.9690224 936.9582802125 143 950.4892578125 143 C 964.0202354125 143 974.9892578125 153.9690224 974.9892578125 167.5 C 974.9892578125 181.0309776 964.0202354125 192 950.4892578125 192 C 936.9582802125 192 925.9892578125 181.0309776 925.9892578125 167.5 Z" opacity="0.2"/></g><g transform="translate(-154,-27) scale(1,1)"><path fill="#ffffff" stroke="none" d="M 918.9892578125 160.5 C 918.9892578125 146.9690224 929.9582802125 136 943.4892578125 136 C 957.0202354125 136 967.9892578125 146.9690224 967.9892578125 160.5 C 967.9892578125 174.0309776 957.0202354125 185 943.4892578125 185 C 929.9582802125 185 918.9892578125 174.0309776 918.9892578125 160.5 Z"/></g><g transform="translate(-154,-27) scale(1,1)"><path fill="none" stroke="#000000" d="M 918.9892578125 160.5 C 918.9892578125 146.9690224 929.9582802125 136 943.4892578125 136 C 957.0202354125 136 967.9892578125 146.9690224 967.9892578125 160.5 C 967.9892578125 174.0309776 957.0202354125 185 943.4892578125 185 C 929.9582802125 185 918.9892578125 174.0309776 918.9892578125 160.5 Z" stroke-miterlimit="10"/></g><g transform="translate(-154,-27) scale(1,1)"><path fill="none" stroke="#000000" d="M 856 210 L 1030.978515625 210" stroke-miterlimit="10"/></g><g transform="translate(-154,-27) scale(1,1)"><g><path fill="none" stroke="none"/><text fill="#000000" stroke="none" font-family="Arial" font-size="13px" font-style="normal" font-weight="bold" text-decoration="none" x="871.6083984375" y="202.7099609375">CombTTSExecStrategy</text></g></g><g transform="translate(-154,-27) scale(1,1)"><g><path fill="none" stroke="none"/><text fill="#000000" stroke="none" font-family="Arial" font-size="13px" font-style="normal" font-weight="normal" text-decoration="none" x="861" y="225.53857421875">+BROWSER = "BROWSER"</text></g></g><g transform="translate(-154,-27) scale(1,1)"><g><path fill="none" stroke="none"/><text fill="#000000" stroke="none" font-family="Arial" font-size="13px" font-style="normal" font-weight="normal" text-decoration="none" x="861" y="240.53857421875">+TTS = "TTS"</text></g></g><g transform="translate(-154,-27) scale(1,1)"><path fill="none" stroke="#000000" d="M 943 136 L 943 116 L 1060 116 L 1060 400 L 882 400" stroke-miterlimit="10"/></g></g></svg>